# File produced by Open Asset Import Library (http://www.assimp.sf.net)
# (assimp v4.1.0)

mtllib rno5o7txgug0.mtl

# 42 vertex positions
v  -1.818343877792358 1.345113957995636e-07 1.967226505279541
v  -1.818343877792358 -1.345113957995636e-07 8.121749877929688
v  2.211746454238892 -1.345113957995636e-07 8.121749877929688
v  2.211746454238892 1.345113957995636e-07 1.967226505279541
v  -1.818343877792358 -0.7406388521194458 1.967226505279541
v  2.211746454238892 -0.7406388521194458 1.967226505279541
v  2.211746454238892 -0.7406390905380249 8.121749877929688
v  -1.818343877792358 -0.7406390905380249 8.121749877929688
v  -1.921130061149597 -0.5554793477058411 8.121749877929688
v  -1.921130061149597 -0.555479109287262 1.967226505279541
v  -1.921130061149597 -0.1851596087217331 1.967226505279541
v  -1.921130061149597 -0.1851598769426346 8.121749877929688
v  -1.94034469127655 -0.3703193366527557 1.967226505279541
v  -1.94034469127655 -0.3703196346759796 8.121749877929688
v  -1.88284957408905 -0.5434241890907288 8.121749877929688
v  -1.795198917388916 -0.7013188004493713 8.121749877929688
v  -1.775602221488953 -0.6954471468925476 8.067161560058594
v  -1.861698031425476 -0.5403534770011902 8.067161560058594
v  -1.900813221931458 -0.3703193366527557 1.967226505279541
v  -1.88284957408905 -0.1972147524356842 1.967226505279541
v  -1.861698031425476 -0.2002854943275452 2.021814823150635
v  -1.879343032836914 -0.3703193664550781 2.021814823150635
v  2.211746454238892 -0.7013188004493713 8.121749877929688
v  2.160263299942017 -0.6954471468925476 8.067161560058594
v  2.211746454238892 -0.03932014852762222 1.967226505279541
v  -1.795198917388916 -0.03932014852762222 1.967226505279541
v  2.211746454238892 -0.03932042047381401 8.121749877929688
v  -1.795198917388916 -0.03932041674852371 8.121749877929688
v  -1.795198917388916 -0.7013185620307922 1.967226505279541
v  2.211746454238892 -0.7013185620307922 1.967226505279541
v  -1.88284957408905 -0.1972150206565857 8.121749877929688
v  -1.900813221931458 -0.3703196346759796 8.121749877929688
v  -1.88284957408905 -0.5434239506721497 1.967226505279541
v  -1.775602221488953 -0.04519182071089745 2.021814823150635
v  2.160263299942017 -0.04519182071089745 2.021814823150635
v  -1.861698031425476 -0.2002857625484467 8.067161560058594
v  -1.775602221488953 -0.04519208148121834 8.067161560058594
v  2.160263299942017 -0.04519208148121834 8.067161560058594
v  -1.879343032836914 -0.3703196048736572 8.067161560058594
v  -1.775602221488953 -0.6954469084739685 2.021814823150635
v  2.160263299942017 -0.6954469084739685 2.021814823150635
v  -1.861698031425476 -0.5403532385826111 2.021814823150635

# 68 UV coordinates
vt 0.4381908774375916 0.3389391005039215 0
vt 0.4381906390190125 0.9891806244850159 0
vt 0.01240095496177673 0.9891804456710815 0
vt 0.01240125298500061 0.3389389514923096 0
vt 0.5222756862640381 0.3389390707015991 0
vt 0.9480652809143066 0.338938981294632 0
vt 0.9480653405189514 0.9891805052757263 0
vt 0.5222758054733276 0.9891806244850159 0
vt 0.4999006390571594 0.9891806244850159 0
vt 0.4999009370803833 0.3389390707015991 0
vt 0.4605655372142792 0.3389391303062439 0
vt 0.4605657160282135 0.9891806244850159 0
vt 0.4802332520484924 0.3389390707015991 0
vt 0.4802331924438477 0.9891806244850159 0
vt 0.948143482208252 0.3388609886169434 0
vt 0.1275524944067001 0.2428066581487656 0
vt 0.1181677430868149 0.2336855977773666 0
vt 0.1211646944284439 0.2308724373579025 0
vt 0.1311313360929489 0.2400005012750626 0
vt 0.5415494441986084 0.1976786404848099 0
vt 0.5190508365631104 0.3054544925689697 0
vt 0.5151720643043518 0.3030781447887421 0
vt 0.5379382967948914 0.1993197202682495 0
vt 0.1129080206155777 0.1331321746110916 0
vt 0.108715295791626 0.2207126319408417 0
vt 0.1043637543916702 0.2213767170906067 0
vt 0.1098289489746094 0.1304094940423965 0
vt 0.3208533823490143 0.08273015916347504 0
vt 0.3214259743690491 0.07841099053621292 0
vt 0.5237282514572144 0.1576750427484512 0
vt 0.5262380838394165 0.1559761613607407 0
vt 0.140615850687027 0.2653204798698425 0
vt 0.2789144814014435 0.2991305589675903 0
vt 0.2789929211139679 0.304085373878479 0
vt 0.1380128562450409 0.2678449153900146 0
vt 0.5224282145500183 0.3074262142181396 0
vt 0.5446850061416626 0.1969713568687439 0
vt 0.5360343456268311 0.1864931285381317 0
vt 0.5379563570022583 0.1854084730148315 0
vt 0.1160012185573578 0.2356968522071838 0
vt 0.5280802845954895 0.1688374578952789 0
vt 0.5301246643066406 0.1681451201438904 0
vt 0.5315732955932617 0.1778354644775391 0
vt 0.5333566665649414 0.1770294010639191 0
vt 0.1338002234697342 0.2531078159809113 0
vt 0.1314943730831146 0.2543321847915649 0
vt 0.1255311816930771 0.2444406002759933 0
vt 0.1137170493602753 0.218963697552681 0
vt 0.1164168417453766 0.1364283561706543 0
vt 0.319957971572876 0.08617380261421204 0
vt 0.5202692747116089 0.1590680032968521 0
vt 0.1444091200828552 0.2627366483211517 0
vt 0.2792088389396667 0.2950430512428284 0
vt 0.1372346580028534 0.2513554692268372 0
vt 0.2860075235366821 2.318039514648262e-05 0
vt 0.7139918208122253 2.219018460891675e-05 0
vt 0.7139918804168701 0.04605746269226074 0
vt 0.2860076129436493 0.04605837166309357 0
vt 0.00736573338508606 2.388948632869869e-05 0
vt 0.007365800905972719 0.04605906456708908 0
vt 0.001270665903575718 0.03507914394140244 0
vt 2.14559167943662e-05 0.02304148301482201 0
vt 0.001270598731935024 0.01100384537130594 0
vt 0.992634117603302 2.14559167943662e-05 0
vt 0.998729407787323 0.0110014034435153 0
vt 0.9999786019325256 0.02303904853761196 0
vt 0.998729407787323 0.03507674112915993 0
vt 0.9926342964172363 0.04605672508478165 0

# 42 vertex normals
vn -0.3438174426555634 0.584119439125061 -0.5201067328453064
vn -0.3438174426555634 0.584119439125061 0.5201067328453064
vn 0.4932761192321777 0.4932760894298553 0.4932761490345001
vn 0.4932761192321777 0.4932761490345001 -0.4932760894298553
vn -0.3438174426555634 -0.584119439125061 -0.5201067328453064
vn 0.4932761192321777 -0.4932760894298553 -0.4932761490345001
vn 0.4932761192321777 -0.4932761490345001 0.4932760894298553
vn -0.3438174426555634 -0.584119439125061 0.5201067328453064
vn -0.6088379621505737 -0.1917253285646439 0.5678750276565552
vn -0.6088379621505737 -0.1917252689599991 -0.5678750276565552
vn -0.6088379621505737 0.1917253285646439 -0.5678750276565552
vn -0.6088379621505737 0.1917252689599991 0.5678750276565552
vn -0.6227617263793945 2.556686418131449e-08 -0.5849016904830933
vn -0.6227617263793945 -2.556686418131449e-08 0.5849016904830933
vn 0.4180774390697479 0.1284426152706146 0.7339170575141907
vn 0.211672231554985 0.3087473213672638 0.7679963111877441
vn 0.2622305452823639 0.5518653392791748 0.5971566438674927
vn 0.4967179298400879 0.1608009785413742 0.6762664318084717
vn 0.4584928154945374 3.151179583937846e-08 -0.7209059000015259
vn 0.4180774390697479 -0.1284426152706146 -0.7339170575141907
vn 0.4967179298400879 -0.1608009785413742 -0.6762664318084717
vn 0.501776397228241 3.022615757686253e-08 -0.6914939284324646
vn 0.5020110607147217 0.4748675525188446 0.5024282336235046
vn 0.2941717505455017 0.7475539445877075 0.2907560169696808
vn 0.5020110607147217 -0.4748675525188446 -0.5024282336235046
vn 0.211672231554985 -0.3087473213672638 -0.7679963111877441
vn 0.5020110607147217 -0.4748676121234894 0.5024282336235046
vn 0.211672231554985 -0.3087473809719086 0.7679963111877441
vn 0.211672231554985 0.3087473809719086 -0.7679963111877441
vn 0.5020110607147217 0.4748676121234894 -0.5024282336235046
vn 0.4180774390697479 -0.1284426748752594 0.7339170575141907
vn 0.4584928154945374 -3.151179583937846e-08 0.7209059000015259
vn 0.4180774390697479 0.1284426748752594 -0.7339170575141907
vn 0.2622305452823639 -0.5518653392791748 -0.5971566438674927
vn 0.2941717505455017 -0.7475539445877075 -0.2907560169696808
vn 0.4967179298400879 -0.160801038146019 0.6762664318084717
vn 0.2622305452823639 -0.5518653392791748 0.5971566438674927
vn 0.2941717505455017 -0.7475539445877075 0.290755957365036
vn 0.501776397228241 -3.022615757686253e-08 0.6914939284324646
vn 0.2622305452823639 0.5518653392791748 -0.5971566438674927
vn 0.2941717505455017 0.7475539445877075 -0.290755957365036
vn 0.4967179298400879 0.160801038146019 -0.6762664318084717

# Mesh 'Plane' with 34 faces
g Plane
usemtl Cover
f  1/1/1 2/2/2 3/3/3 4/4/4
f  5/5/5 6/6/6 7/7/7 8/8/8
f  9/9/9 10/10/10 5/5/5 8/8/8
f  2/2/2 1/1/1 11/11/11 12/12/12
f  12/12/12 11/11/11 13/13/13 14/14/14
f  14/14/14 13/13/13 10/10/10 9/9/9
f  15/15/15 16/15/16 17/15/17 18/15/18
f  19/16/19 20/17/20 21/18/21 22/19/22
f  16/20/16 23/21/23 24/22/24 17/23/17
f  25/24/25 26/25/26 1/26/1 4/27/4
f  27/28/27 25/24/25 4/27/4 3/29/3
f  28/30/28 27/28/27 3/29/3 2/31/2
f  29/32/29 30/33/30 6/34/6 5/35/5
f  30/33/30 23/21/23 7/36/7 6/34/6
f  23/21/23 16/20/16 8/37/8 7/36/7
f  16/20/16 15/38/15 9/39/9 8/37/8
f  26/25/26 20/17/20 11/40/11 1/26/1
f  31/41/31 28/30/28 2/31/2 12/42/12
f  32/43/32 31/41/31 12/42/12 14/44/14
f  15/38/15 32/43/32 14/44/14 9/39/9
f  33/45/33 29/32/29 5/35/5 10/46/10
f  19/16/19 33/45/33 10/46/10 13/47/13
f  20/17/20 19/16/19 13/47/13 11/40/11
f  20/17/20 26/25/26 34/48/34 21/18/21
f  26/25/26 25/24/25 35/49/35 34/48/34
f  28/15/28 31/15/31 36/15/36 37/15/37
f  25/24/25 27/28/27 38/50/38 35/49/35
f  31/15/31 32/15/32 39/15/39 36/15/36
f  27/28/27 28/30/28 37/51/37 38/50/38
f  32/15/32 15/15/15 18/15/18 39/15/39
f  30/33/30 29/32/29 40/52/40 41/53/41
f  29/32/29 33/45/33 42/54/42 40/52/40
f  23/21/23 30/33/30 41/53/41 24/22/24
f  33/45/33 19/16/19 22/19/22 42/54/42

# Mesh 'Plane' with 3 faces
g Plane
usemtl Pages
f  35/55/35 38/56/38 24/57/24 41/58/41
f  34/59/34 35/55/35 41/58/41 40/60/40 42/61/42 22/62/22 21/63/21
f  38/56/38 37/64/37 36/65/36 39/66/39 18/67/18 17/68/17 24/57/24

